<?xml version="1.0" encoding="UTF-8"?>
<svg version="1.1" xmlns="http://www.w3.org/2000/svg" width="512" height="512">
<path d="M0 0 C6.55601848 5.71248845 10.68150333 11.64882273 14.78637695 19.26757812 C15.75377712 21.00280302 16.72120705 22.73801251 17.6907959 24.47201538 C18.67524024 26.23707571 19.65203875 28.00621258 20.62817383 29.77587891 C23.51665585 34.96672058 26.5255457 40.08457326 29.53637695 45.20507812 C36.27991651 56.7384037 42.95520695 68.31063455 49.62329102 79.88769531 C51.56725446 83.2586212 53.51600629 86.62673727 55.46606445 89.99414062 C58.60600975 95.41714748 61.73441611 100.84664868 64.85424805 106.28125 C65.92606485 108.14425116 67.00152596 110.00516381 68.08178711 111.86328125 C83.0729688 137.65521618 88.25253972 163.8120603 81.53637695 193.20507812 C74.39240151 220.08334421 57.38792719 243.72293636 33.53637695 258.20507812 C9.90022397 271.41384509 -19.07663463 275.79670881 -45.52661133 269.03686523 C-47.52288677 268.47040603 -49.49259788 267.85357993 -51.46362305 267.20507812 C-52.10219238 267.00140625 -52.74076172 266.79773438 -53.39868164 266.58789062 C-77.75618069 258.56162092 -98.84605137 240.62215655 -110.77612305 217.93554688 C-118.5634347 202.35567958 -122.8710155 186.47643475 -122.77612305 169.01757812 C-122.7704834 167.9226001 -122.76484375 166.82762207 -122.7590332 165.69946289 C-122.32899266 136.7952031 -108.60537965 114.04862484 -94.20581055 89.84179688 C-90.84425147 84.18028966 -87.56252672 78.47292972 -84.27612305 72.76757812 C-83.63900391 71.6620459 -83.00188477 70.55651367 -82.34545898 69.41748047 C-80.38430134 66.01366033 -78.42388702 62.60941299 -76.46362305 59.20507812 C-72.70567946 52.6799913 -68.94554184 46.15623403 -65.17456055 39.63867188 C-62.65888166 35.28828464 -60.16754906 30.92504339 -57.69018555 26.55273438 C-56.46895687 24.4159439 -55.24760733 22.2792225 -54.02612305 20.14257812 C-53.48334717 19.17368652 -52.94057129 18.20479492 -52.38134766 17.20654297 C-46.65508105 7.2416692 -40.53313208 -0.74994631 -29.46362305 -4.79492188 C-19.14762352 -7.3130005 -8.7326651 -6.36235792 0 0 Z M-74.46362305 121.20507812 C-78.47650515 127.72061788 -79.55383774 134.67268568 -78.46362305 142.20507812 C-76.18605359 149.95125017 -71.99241623 155.92619105 -64.96362305 160.01757812 C-58.89404047 163.31951653 -52.62201177 164.18096307 -45.8503418 162.59179688 C-37.35473608 159.92443519 -31.90193097 155.53110831 -27.52612305 147.76757812 C-24.6568921 138.14721555 -25.41476965 130.86723443 -30.21362305 121.95507812 C-35.83122363 115.08912186 -41.58648237 111.15546993 -50.4987793 109.92382812 C-60.37292649 109.45269585 -68.15424375 113.78524807 -74.46362305 121.20507812 Z M-2.58862305 130.14257812 C-3.06452881 130.70686523 -3.54043457 131.27115234 -4.03076172 131.85253906 C-7.83109972 136.38767996 -11.49424482 141.02082205 -15.1262207 145.69116211 C-18.82387751 150.4312642 -22.62822594 155.07598928 -26.46362305 159.70507812 C-31.19047878 165.41416258 -35.85914729 171.15834539 -40.39648438 177.01953125 C-42.80996561 180.13161636 -45.2722257 183.18635251 -47.8112793 186.19726562 C-48.36799316 186.86612793 -48.92470703 187.53499023 -49.49829102 188.22412109 C-50.57267526 189.51179521 -51.65841589 190.79010755 -52.75708008 192.05712891 C-55.21609724 195.02643097 -56.38774726 196.5840753 -56.8659668 200.49804688 C-56.39063337 203.69616402 -55.87157121 205.03792478 -53.46362305 207.20507812 C-50.70675125 208.55435474 -50.70675125 208.55435474 -47.46362305 208.20507812 C-40.47637231 203.68391588 -35.80347359 196.46618392 -30.79956055 189.93310547 C-28.94040289 187.52829591 -27.02013642 185.1770089 -25.08862305 182.83007812 C-16.74582937 172.6846451 -8.4429354 162.51299233 -0.36010742 152.15869141 C2.51290295 148.4849193 5.44185932 144.8643206 8.41137695 141.26757812 C9.78830192 139.58164845 11.16352142 137.89432321 12.53637695 136.20507812 C13.36202148 135.20347656 13.36202148 135.20347656 14.2043457 134.18164062 C16.32794286 131.45724987 17.4945104 129.44232192 18.09887695 126.01757812 C17.38719137 122.45915021 16.52711305 121.25137124 13.53637695 119.20507812 C5.72872645 117.70999611 1.95881752 124.72923567 -2.58862305 130.14257812 Z M-6.5456543 171.98242188 C-12.02565125 178.33296825 -13.20514664 184.69344207 -12.9050293 192.99023438 C-11.81146549 200.95486279 -7.86374729 206.84116597 -1.6315918 211.79882812 C4.4782437 215.76196467 11.32813577 217.27117094 18.53637695 216.20507812 C27.28799913 213.94659498 33.25957382 209.31358706 37.97387695 201.64257812 C40.92196544 195.04142348 40.7211982 187.11603677 38.65356445 180.29101562 C35.4994516 173.37703315 31.00509629 169.4912795 24.78637695 165.39257812 C13.02298947 161.09441731 2.38311498 163.27489644 -6.5456543 171.98242188 Z " fill="#FD6988" transform="translate(297.463623046875,208.794921875)"/>
<path d="M0 0 C0.63035156 0.41121094 1.26070313 0.82242188 1.91015625 1.24609375 C2.59207031 1.64699219 3.27398437 2.04789063 3.9765625 2.4609375 C13.53820023 8.72045366 18.45389728 20.77133164 23.97265625 30.43359375 C25.28074718 32.71252827 26.58935395 34.99116677 27.8984375 37.26953125 C28.22842743 37.84437759 28.55841736 38.41922394 28.89840698 39.01148987 C32.45846279 45.20969777 36.05646849 51.38566733 39.66015625 57.55859375 C40.24418213 58.55979248 40.82820801 59.56099121 41.42993164 60.5925293 C44.38393365 65.73253141 44.38393365 65.73253141 47.64941406 70.67260742 C49.30764714 74.05747087 48.94515432 75.65664458 47.91015625 79.24609375 C46.56591797 82.08496094 46.56591797 82.08496094 44.83984375 85.04296875 C44.19821289 86.15341553 43.55658203 87.2638623 42.89550781 88.40795898 C42.19218993 89.60408191 41.4887359 90.80012479 40.78515625 91.99609375 C40.05998174 93.24435605 39.3357114 94.49314402 38.61230469 95.74243164 C37.1202332 98.31623028 35.62326757 100.88708009 34.12207031 103.45556641 C30.77589988 109.18350005 27.47069324 114.93501078 24.16015625 120.68359375 C20.62795146 126.81416482 17.09152012 132.94166276 13.515625 139.046875 C0.97140506 160.55342026 -7.5157633 181.74649648 -7.40234375 206.99609375 C-7.39960449 208.22948486 -7.39686523 209.46287598 -7.39404297 210.73364258 C-7.29225167 219.60879106 -6.44885175 227.6647748 -4.08984375 236.24609375 C-3.31862882 239.25088198 -2.64995319 242.19095134 -2.08984375 245.24609375 C-2.74984375 246.23609375 -3.40984375 247.22609375 -4.08984375 248.24609375 C-6.08251953 248.63427734 -6.08251953 248.63427734 -8.53515625 248.64453125 C-9.43935303 248.65081543 -10.3435498 248.65709961 -11.27514648 248.66357422 C-12.24524658 248.64955566 -13.21534668 248.63553711 -14.21484375 248.62109375 C-15.2087915 248.61094238 -16.20273926 248.60079102 -17.22680664 248.59033203 C-40.2718035 248.11142674 -60.47859201 240.10949061 -78.08984375 225.24609375 C-79.60578125 224.10140625 -79.60578125 224.10140625 -81.15234375 222.93359375 C-97.24452915 208.21095605 -108.78066505 186.00128008 -110.30932617 164.10180664 C-110.80762549 149.72634132 -110.74033759 135.94739048 -106.08984375 122.24609375 C-105.72375 121.15941406 -105.35765625 120.07273437 -104.98046875 118.953125 C-100.68354637 107.85274219 -94.11668753 97.78600282 -88.05908203 87.58789062 C-85.0408228 82.46590546 -82.09667127 77.30200362 -79.15631104 72.1350708 C-77.47651745 69.18366254 -75.79280724 66.23449012 -74.109375 63.28515625 C-73.7761322 62.70120087 -73.4428894 62.11724548 -73.09954834 61.51559448 C-64.9650929 47.2648941 -56.80259857 33.02973298 -48.40234375 18.93359375 C-47.92120117 18.12148437 -47.44005859 17.309375 -46.94433594 16.47265625 C-43.53626907 10.79173279 -40.35822037 5.7515402 -34.71484375 2.05859375 C-33.98523438 1.57003906 -33.255625 1.08148438 -32.50390625 0.578125 C-23.38898176 -4.45130744 -9.24819347 -5.14976477 0 0 Z " fill="#FE918B" transform="translate(168.08984375,169.75390625)"/>
<path d="M0 0 C7.91253486 4.89005164 12.16228312 15.79402811 16.625 23.625 C17.94188071 25.92756296 19.2593577 28.22976862 20.578125 30.53125 C20.91120667 31.11310562 21.24428833 31.69496124 21.58746338 32.29444885 C23.89230068 36.31172204 26.23988312 40.30162863 28.609375 44.28125 C29.24230469 45.34851318 29.87523437 46.41577637 30.52734375 47.51538086 C31.72630969 49.5332494 32.93167317 51.54733555 34.14453125 53.55688477 C42.09159136 66.9792908 44.68403709 80.14889847 41.0625 95.5 C37.38766619 109.73683904 29.04271075 121.11266184 16.5625 129 C3.24716852 136.39972895 -11.58017988 137.38543909 -26.23828125 133.6015625 C-40.2348387 128.96509391 -50.057234 119.66344177 -56.8515625 106.7578125 C-63.18278483 93.3918987 -64.8602853 79.1383788 -59.875 64.99609375 C-56.61573302 57.53542794 -52.48716663 50.57729582 -48.375 43.5625 C-47.22439104 41.57602414 -46.07469146 39.58902134 -44.92578125 37.6015625 C-41.96826115 32.49589389 -38.98535762 27.40563475 -35.9921875 22.32080078 C-34.53426704 19.8341484 -33.09219206 17.33922633 -31.65625 14.83984375 C-30.87532641 13.49720593 -30.09410372 12.15474201 -29.3125 10.8125 C-28.66152344 9.68328125 -28.01054687 8.5540625 -27.33984375 7.390625 C-20.98450832 -1.75701487 -10.28726401 -4.34924868 0 0 Z " fill="#FE7489" transform="translate(249.375,33.4375)"/>
<path d="M0 0 C6.49894523 5.76820259 10.32738471 14.31973312 14.4375 21.85009766 C18.69811049 29.64899208 23.19353647 37.30434477 27.72290039 44.94970703 C37.58747821 61.70555193 43.50418136 75.87628675 38.46459961 95.43212891 C34.56283696 109.40512195 26.08350157 120.77137029 13.4453125 128.01171875 C0.75715098 134.98658239 -12.40591414 135.62008422 -26.3671875 132.44921875 C-34.54888476 129.91279391 -40.98204243 126.1042794 -47.3671875 120.44921875 C-47.97046875 119.97355469 -48.57375 119.49789062 -49.1953125 119.0078125 C-57.0107329 112.26613229 -62.78466992 100.01160469 -64.19140625 89.859375 C-64.24941406 89.06402344 -64.30742187 88.26867187 -64.3671875 87.44921875 C-64.46966797 86.05509766 -64.46966797 86.05509766 -64.57421875 84.6328125 C-65.29327361 64.20632823 -54.2085401 47.87417261 -44.078125 31.00390625 C-42.03516153 27.59794846 -40.0557709 24.16023364 -38.09375 20.70703125 C-37.24453979 19.22843628 -37.24453979 19.22843628 -36.37817383 17.7199707 C-35.27419291 15.79716823 -34.17971756 13.86886572 -33.09643555 11.93432617 C-29.30883457 5.38950883 -25.36202236 0.49102323 -18.5546875 -2.98828125 C-12.2303453 -4.10434164 -5.48871176 -3.6378671 0 0 Z " fill="#FD4885" transform="translate(414.3671875,103.55078125)"/>
<path d="M0 0 C3.46620794 1.38648318 4.7385818 2.62530059 6.875 5.6875 C8.27435017 9.80780885 8.41921567 12.86982746 7 17 C4.80742191 19.64233769 3.06660382 21.46669809 0 23 C-5.00404498 23.37766377 -7.99885156 23.11200434 -12 20 C-14.81689603 17.47450701 -15.2730238 15.28115719 -15.5 11.625 C-15.3494154 6.5553185 -13.61328571 4.44122449 -10 1 C-6.801457 -0.5992715 -3.47898371 -0.36127908 0 0 Z " fill="#FE7289" transform="translate(249,334)"/>
<path d="M0 0 C3.02508145 1.73602105 5.41790069 3.83580137 7 7 C7.53118173 10.79415519 7.85089348 14.46331178 5.953125 17.890625 C4.17889137 20.0405787 2.50728754 21.74635623 0 23 C-5.29304255 23.34708476 -8.73358414 23.51351894 -13 20 C-15.5285015 15.80072189 -15.83640841 11.78657485 -15 7 C-11.55060253 0.81929524 -6.92475557 -1.18196199 0 0 Z " fill="#FE6187" transform="translate(315,387)"/>
</svg>
