<?xml version="1.0" encoding="UTF-8"?>
<svg version="1.1" xmlns="http://www.w3.org/2000/svg" width="512" height="512">
<path d="M0 0 C0.70108887 0.38414063 1.40217773 0.76828125 2.12451172 1.1640625 C12.07809243 6.68270327 21.24018947 12.72552583 30 20 C30.88413574 20.73186523 30.88413574 20.73186523 31.78613281 21.47851562 C41.68852301 29.72090704 50.72324301 38.15159348 58.79296875 48.2421875 C60.14655271 49.93356851 61.51995271 51.60959972 62.92578125 53.2578125 C95.4319728 91.88835898 110.24840452 146.0360956 106.5 195.96484375 C102.36884599 241.10857279 85.22188933 283.09696435 55 317 C54.54625 317.51546387 54.0925 318.03092773 53.625 318.56201172 C20.1576385 356.50991131 -26.07636227 378.77504567 -76 385 C-77.01320313 385.13148438 -78.02640625 385.26296875 -79.0703125 385.3984375 C-131.97207554 390.97497662 -185.43890501 374.25977516 -226.953125 341.5234375 C-232.16059989 337.21058009 -237.11792088 332.67545569 -242 328 C-242.49886719 327.52836426 -242.99773437 327.05672852 -243.51171875 326.57080078 C-251.50718457 318.98384366 -258.49461369 310.89492101 -265 302 C-265.40927734 301.44570313 -265.81855469 300.89140625 -266.24023438 300.3203125 C-298.17062321 256.51243603 -310.03070038 200.92852665 -301.96875 147.6328125 C-296.85636311 116.84230057 -285.49180459 87.27751842 -267 62 C-266.59426758 61.44022461 -266.18853516 60.88044922 -265.77050781 60.30371094 C-259.72362557 52.02221559 -253.087828 44.40106192 -246 37 C-245.52836426 36.50113281 -245.05672852 36.00226563 -244.57080078 35.48828125 C-236.98516876 27.49421188 -228.89872792 20.49806182 -220 14 C-219.43506836 13.58540527 -218.87013672 13.17081055 -218.28808594 12.74365234 C-190.05932813 -7.68697185 -156.51381574 -19.90594737 -122 -24 C-121.11699219 -24.11085937 -120.23398438 -24.22171875 -119.32421875 -24.3359375 C-78.24319569 -28.63578998 -36.12385467 -19.81244212 0 0 Z " fill="#F5842F" transform="translate(358,77)"/>
</svg>
