<?xml version="1.0" encoding="UTF-8"?>
<svg version="1.1" xmlns="http://www.w3.org/2000/svg" width="512" height="512">
<path d="M0 0 C22.03852652 18.81159856 36.46579334 41.06373377 44.3515625 68.91015625 C44.69316406 70.08835937 45.03476562 71.2665625 45.38671875 72.48046875 C52.92056498 104.36791093 46.53869956 140.38566089 29.7109375 168.21484375 C19.22380228 184.89578124 5.20171214 199.62660904 -11.6484375 209.91015625 C-12.7209375 210.59335937 -13.7934375 211.2765625 -14.8984375 211.98046875 C-42.75922794 228.94201478 -78.25061189 233.92648545 -110.03027344 226.74707031 C-117.81941729 224.77736357 -125.2980262 222.14033195 -132.6484375 218.91015625 C-133.30263672 218.62688477 -133.95683594 218.34361328 -134.63085938 218.05175781 C-164.72593234 204.76588414 -188.43262339 179.18859339 -200.51953125 148.71386719 C-202.47890077 143.51521742 -204.1350825 138.25415274 -205.6484375 132.91015625 C-205.99003906 131.73195313 -206.33164063 130.55375 -206.68359375 129.33984375 C-214.21743998 97.45240157 -207.83557456 61.43465161 -191.0078125 33.60546875 C-172.71931393 4.51560818 -145.47270495 -14.79440926 -112.6484375 -24.08984375 C-111.47023438 -24.43144531 -110.29203125 -24.77304688 -109.078125 -25.125 C-71.91216204 -33.90596927 -29.43835184 -24.14652242 0 0 Z " fill="#5FC1F7" transform="translate(336.6484375,155.08984375)"/>
<path d="M0 0 C1.10794922 -0.03867187 1.10794922 -0.03867187 2.23828125 -0.078125 C9.62085895 0.91092847 14.26773857 6.37757921 19.26171875 11.390625 C20.06736771 12.1910321 20.87301666 12.99143921 21.70307922 13.81610107 C23.40030877 15.5069221 25.09369017 17.20161356 26.78344727 18.89990234 C29.36439625 21.48936129 31.96343931 24.05962111 34.56445312 26.62890625 C36.21467312 28.27751405 37.86379896 29.92721796 39.51171875 31.578125 C40.2867424 32.34191467 41.06176605 33.10570435 41.86027527 33.89263916 C47.01003313 39.1093844 50.17679173 43.23729219 51.125 50.6875 C50.37996373 56.75422394 48.4335153 60.86031435 43.625 64.6875 C39.0729177 67.10882037 35.82295409 67.59236361 30.6875 67.25 C23.82750078 65.11465323 19.7353318 60.864759 14.76171875 55.8203125 C13.93291702 54.992966 13.1041153 54.16561951 12.25019836 53.3132019 C10.50660417 51.56795266 8.76793701 49.81776877 7.03393555 48.06298828 C4.37880936 45.37885098 1.70546054 42.71392641 -0.97070312 40.05078125 C-2.66517865 38.35006967 -4.3585757 36.64828273 -6.05078125 34.9453125 C-6.84970291 34.14932648 -7.64862457 33.35334045 -8.47175598 32.53323364 C-9.20979965 31.7825058 -9.94784332 31.03177795 -10.70825195 30.25830078 C-11.35776321 29.60338654 -12.00727448 28.94847229 -12.6764679 28.27371216 C-16.14493713 23.98334197 -16.70920031 19.79913448 -16.55859375 14.45703125 C-16.01979859 9.62497942 -13.87699775 6.54978535 -10.3125 3.4375 C-6.76728572 0.85244792 -4.28744076 0.08885888 0 0 Z " fill="#79D2F2" transform="translate(380.3125,363.75)"/>
<path d="M0 0 C4.80573582 2.61707707 7.09652397 6.22707191 8.8125 11.375 C9.30368218 17.76036833 8.16381973 22.5219147 4.10455322 27.44741821 C1.91316201 29.78611855 -0.33497347 32.05061376 -2.6171875 34.30078125 C-3.444534 35.12958298 -4.27188049 35.9583847 -5.1242981 36.81230164 C-6.86954734 38.55589583 -8.61973123 40.29456299 -10.37451172 42.02856445 C-13.05864902 44.68369064 -15.72357359 47.35703946 -18.38671875 50.03320312 C-20.08743033 51.72767865 -21.78921727 53.4210757 -23.4921875 55.11328125 C-24.28817352 55.91220291 -25.08415955 56.71112457 -25.90426636 57.53425598 C-26.6549942 58.27229965 -27.40572205 59.01034332 -28.17919922 59.77075195 C-28.83411346 60.42026321 -29.48902771 61.06977448 -30.16378784 61.7389679 C-34.45415803 65.20743713 -38.63836552 65.77170031 -43.98046875 65.62109375 C-48.81252058 65.08229859 -51.88771465 62.93949775 -55 59.375 C-57.58505208 55.82978572 -58.34864112 53.34994076 -58.4375 49.0625 C-58.47617187 47.95455078 -58.47617187 47.95455078 -58.515625 46.82421875 C-57.52657153 39.44164105 -52.05992079 34.79476143 -47.046875 29.80078125 C-46.2464679 28.99513229 -45.44606079 28.18948334 -44.62139893 27.35942078 C-42.9305779 25.66219123 -41.23588644 23.96880983 -39.53759766 22.27905273 C-36.94813871 19.69810375 -34.37787889 17.09906069 -31.80859375 14.49804688 C-30.15998595 12.84782688 -28.51028204 11.19870104 -26.859375 9.55078125 C-26.09558533 8.7757576 -25.33179565 8.00073395 -24.54486084 7.20222473 C-17.42483189 0.17362291 -10.08588399 -4.46393754 0 0 Z " fill="#79D2F2" transform="translate(422.1875,82.625)"/>
<path d="M0 0 C4.1796989 2.8497947 7.11864324 5.98092971 8.75 10.875 C8.953125 12.92578125 8.953125 12.92578125 9 15.1875 C9.02578125 15.92613281 9.0515625 16.66476562 9.078125 17.42578125 C8.08907153 24.80835895 2.62242079 29.45523857 -2.390625 34.44921875 C-3.1910321 35.25486771 -3.99143921 36.06051666 -4.81610107 36.89057922 C-6.5069221 38.58780877 -8.20161356 40.28119017 -9.89990234 41.97094727 C-12.48936129 44.55189625 -15.05962111 47.15093931 -17.62890625 49.75195312 C-19.27751405 51.40217312 -20.92721796 53.05129896 -22.578125 54.69921875 C-23.72380951 55.86175423 -23.72380951 55.86175423 -24.89263916 57.04777527 C-30.1093844 62.19753313 -34.23729219 65.36429173 -41.6875 66.3125 C-47.75422394 65.56746373 -51.86031435 63.6210153 -55.6875 58.8125 C-58.10882037 54.2604177 -58.59236361 51.01045409 -58.25 45.875 C-56.11465323 39.01500078 -51.864759 34.9228318 -46.8203125 29.94921875 C-45.992966 29.12041702 -45.16561951 28.2916153 -44.3132019 27.43769836 C-42.56795266 25.69410417 -40.81776877 23.95543701 -39.06298828 22.22143555 C-36.37885098 19.56630936 -33.71392641 16.89296054 -31.05078125 14.21679688 C-29.35006967 12.52232135 -27.64828273 10.8289243 -25.9453125 9.13671875 C-25.14932648 8.33779709 -24.35334045 7.53887543 -23.53323364 6.71574402 C-22.7825058 5.97770035 -22.03177795 5.23965668 -21.25830078 4.47924805 C-20.60338654 3.82973679 -19.94847229 3.18022552 -19.27371216 2.5110321 C-13.5848028 -2.08805988 -6.70765952 -2.32188214 0 0 Z " fill="#45AFFB" transform="translate(139.25,365.125)"/>
<path d="M0 0 C4.20632211 2.5042682 7.48906389 6.14357452 10.9046936 9.60784912 C11.73349533 10.43519562 12.56229706 11.26254211 13.41621399 12.11495972 C15.15980818 13.86020896 16.89847534 15.61039285 18.63247681 17.36517334 C21.28760299 20.04931064 23.96095181 22.71423522 26.63711548 25.37738037 C28.33159101 27.07809196 30.02498806 28.77987889 31.7171936 30.48284912 C32.51611526 31.27883514 33.31503693 32.07482117 34.13816833 32.89492798 C35.24523384 34.02101974 35.24523384 34.02101974 36.37466431 35.16986084 C37.02417557 35.82477509 37.67368683 36.47968933 38.34288025 37.15444946 C41.81134949 41.44481965 42.37561266 45.62902714 42.2250061 50.97113037 C41.68621094 55.8031822 39.5434101 58.87837627 35.97891235 61.99066162 C32.43369807 64.5757137 29.95385311 65.33930275 25.66641235 65.42816162 C24.92777954 65.45394287 24.18914673 65.47972412 23.4281311 65.50628662 C16.0455534 64.51723315 11.39867379 59.05058242 6.4046936 54.03753662 C5.59904465 53.23712952 4.79339569 52.43672241 3.96333313 51.61206055 C2.26610358 49.92123952 0.57272219 48.22654807 -1.11703491 46.52825928 C-3.6979839 43.93880033 -6.29702696 41.36854051 -8.89804077 38.79925537 C-10.54826077 37.15064757 -12.1973866 35.50094367 -13.8453064 33.85003662 C-14.62033005 33.08624695 -15.3953537 32.32245728 -16.19386292 31.53552246 C-21.34362078 26.31877722 -24.51037938 22.19086943 -25.45858765 14.74066162 C-24.71355137 8.67393768 -22.76710295 4.56784727 -17.95858765 0.74066162 C-11.87181995 -2.49698077 -6.37155762 -2.87760005 0 0 Z " fill="#45AFFB" transform="translate(106.02108764648438,82.82183837890625)"/>
<path d="M0 0 C4.6413483 2.15491171 8.07137126 5.20342786 10 10 C10.59970881 14.49879151 10.56031934 18.96691901 10.53125 23.5 C10.5350769 24.80904297 10.53890381 26.11808594 10.54284668 27.46679688 C10.54872605 30.23066196 10.54023041 32.99400802 10.52148438 35.7578125 C10.49869442 39.28862831 10.51182609 42.81822777 10.53577423 46.34899902 C10.55375956 49.73276177 10.54114232 53.11620276 10.53125 56.5 C10.53934692 57.76263672 10.54744385 59.02527344 10.55578613 60.32617188 C10.43994781 71.18018545 10.43994781 71.18018545 6 76 C2.18069828 79.62833663 -0.88279006 80.31000458 -6 80.5 C-11.11720994 80.31000458 -14.18069828 79.62833663 -18 76 C-23.30101051 70.24545317 -22.57940296 64.00898761 -22.53125 56.5 C-22.5350769 55.19095703 -22.53890381 53.88191406 -22.54284668 52.53320312 C-22.54872605 49.76933804 -22.54023041 47.00599198 -22.52148438 44.2421875 C-22.49869442 40.71137169 -22.51182609 37.18177223 -22.53577423 33.65100098 C-22.55375956 30.26723823 -22.54114232 26.88379724 -22.53125 23.5 C-22.53934692 22.23736328 -22.54744385 20.97472656 -22.55578613 19.67382812 C-22.43994781 8.81981455 -22.43994781 8.81981455 -18 4 C-12.72867143 -1.00776214 -6.89190982 -0.92775709 0 0 Z " fill="#5FC0F7" transform="translate(262,416)"/>
<path d="M0 0 C1.30904297 -0.0038269 2.61808594 -0.00765381 3.96679688 -0.01159668 C6.73066196 -0.01747605 9.49400802 -0.00898041 12.2578125 0.00976562 C15.78862831 0.03255558 19.31822777 0.01942391 22.84899902 -0.00452423 C26.23276177 -0.02250956 29.61620276 -0.00989232 33 0 C34.89395508 -0.01214539 34.89395508 -0.01214539 36.82617188 -0.02453613 C47.68018545 0.09130219 47.68018545 0.09130219 52.5 4.53125 C56.12833663 8.35055172 56.81000458 11.41404006 57 16.53125 C56.81000458 21.64845994 56.12833663 24.71194828 52.5 28.53125 C46.74545317 33.83226051 40.50898761 33.11065296 33 33.0625 C31.69095703 33.0663269 30.38191406 33.07015381 29.03320312 33.07409668 C26.26933804 33.07997605 23.50599198 33.07148041 20.7421875 33.05273438 C17.21137169 33.02994442 13.68177223 33.04307609 10.15100098 33.06702423 C6.76723823 33.08500956 3.38379724 33.07239232 0 33.0625 C-1.26263672 33.07059692 -2.52527344 33.07869385 -3.82617188 33.08703613 C-14.68018545 32.97119781 -14.68018545 32.97119781 -19.5 28.53125 C-23.12833663 24.71194828 -23.81000458 21.64845994 -24 16.53125 C-23.81000458 11.41404006 -23.12833663 8.35055172 -19.5 4.53125 C-13.74545317 -0.76976051 -7.50898761 -0.04815296 0 0 Z " fill="#84D9F0" transform="translate(439.5,239.46875)"/>
<path d="M0 0 C1.30904297 -0.0038269 2.61808594 -0.00765381 3.96679688 -0.01159668 C6.73066196 -0.01747605 9.49400802 -0.00898041 12.2578125 0.00976562 C15.78862831 0.03255558 19.31822777 0.01942391 22.84899902 -0.00452423 C26.23276177 -0.02250956 29.61620276 -0.00989232 33 0 C34.89395508 -0.01214539 34.89395508 -0.01214539 36.82617188 -0.02453613 C47.68018545 0.09130219 47.68018545 0.09130219 52.5 4.53125 C56.12833663 8.35055172 56.81000458 11.41404006 57 16.53125 C56.81000458 21.64845994 56.12833663 24.71194828 52.5 28.53125 C46.74545317 33.83226051 40.50898761 33.11065296 33 33.0625 C31.69095703 33.0663269 30.38191406 33.07015381 29.03320312 33.07409668 C26.26933804 33.07997605 23.50599198 33.07148041 20.7421875 33.05273438 C17.21137169 33.02994442 13.68177223 33.04307609 10.15100098 33.06702423 C6.76723823 33.08500956 3.38379724 33.07239232 0 33.0625 C-1.26263672 33.07059692 -2.52527344 33.07869385 -3.82617188 33.08703613 C-14.68018545 32.97119781 -14.68018545 32.97119781 -19.5 28.53125 C-23.12833663 24.71194828 -23.81000458 21.64845994 -24 16.53125 C-23.81000458 11.41404006 -23.12833663 8.35055172 -19.5 4.53125 C-13.74545317 -0.76976051 -7.50898761 -0.04815296 0 0 Z " fill="#3AA8FD" transform="translate(39.5,239.46875)"/>
<path d="M0 0 C4.6413483 2.15491171 8.07137126 5.20342786 10 10 C10.59970881 14.49879151 10.56031934 18.96691901 10.53125 23.5 C10.5350769 24.80904297 10.53890381 26.11808594 10.54284668 27.46679688 C10.54872605 30.23066196 10.54023041 32.99400802 10.52148438 35.7578125 C10.49869442 39.28862831 10.51182609 42.81822777 10.53577423 46.34899902 C10.55375956 49.73276177 10.54114232 53.11620276 10.53125 56.5 C10.53934692 57.76263672 10.54744385 59.02527344 10.55578613 60.32617188 C10.43994781 71.18018545 10.43994781 71.18018545 6 76 C2.18069828 79.62833663 -0.88279006 80.31000458 -6 80.5 C-11.11720994 80.31000458 -14.18069828 79.62833663 -18 76 C-23.30101051 70.24545317 -22.57940296 64.00898761 -22.53125 56.5 C-22.5350769 55.19095703 -22.53890381 53.88191406 -22.54284668 52.53320312 C-22.54872605 49.76933804 -22.54023041 47.00599198 -22.52148438 44.2421875 C-22.49869442 40.71137169 -22.51182609 37.18177223 -22.53577423 33.65100098 C-22.55375956 30.26723823 -22.54114232 26.88379724 -22.53125 23.5 C-22.53934692 22.23736328 -22.54744385 20.97472656 -22.55578613 19.67382812 C-22.43994781 8.81981455 -22.43994781 8.81981455 -18 4 C-12.72867143 -1.00776214 -6.89190982 -0.92775709 0 0 Z " fill="#5FC0F7" transform="translate(262,16)"/>
</svg>
