<?xml version="1.0" encoding="UTF-8"?>
<svg version="1.1" xmlns="http://www.w3.org/2000/svg" width="512" height="512">
<path d="M0 0 C1.12631836 -0.0299707 1.12631836 -0.0299707 2.27539062 -0.06054688 C5.81764614 -0.05743143 8.05118975 0.15445325 11.1875 1.890625 C14.58412338 5.53305665 17.33387027 9.5081807 20.125 13.625 C21.37332985 15.43775352 22.62203389 17.25024941 23.87109375 19.0625 C24.49226074 19.96871094 25.11342773 20.87492187 25.75341797 21.80859375 C28.36529502 25.60409876 31.02365866 29.3658714 33.6875 33.125 C34.66940382 34.51422893 35.65117503 35.9035516 36.6328125 37.29296875 C37.11524414 37.97536621 37.59767578 38.65776367 38.09472656 39.36083984 C40.58570986 42.88517516 43.07394903 46.41144701 45.5625 49.9375 C46.56248722 51.35417568 47.56248722 52.77084236 48.5625 54.1875 C54.5625 62.6875 54.5625 62.6875 56.06323242 64.8137207 C57.06056087 66.22648086 58.05811848 67.63907927 59.0559082 69.05151367 C62.11688056 73.38526662 65.16932112 77.7248573 68.21435547 82.06982422 C69.7215933 84.20967061 71.2449113 86.33736262 72.76953125 88.46484375 C74.54479212 90.95213011 76.22312654 93.4640029 77.82421875 96.06640625 C81.69011422 102.1084818 81.69011422 102.1084818 87.73828125 105.58984375 C90.1050195 106.03475895 92.48273554 106.42439347 94.8671875 106.76171875 C104.90963074 108.59823321 113.12720142 114.11639819 119.890625 121.6171875 C122.51989252 124.47989466 124.53327663 124.62342072 128.2870636 124.94171143 C129.28387146 125.02841599 130.28067932 125.11512054 131.30769348 125.20445251 C132.95423164 125.34156395 132.95423164 125.34156395 134.6340332 125.48144531 C137.02411457 125.68751345 139.41419531 125.89358882 141.80427551 126.09967041 C143.07648264 126.20787361 144.34868977 126.31607681 145.65944862 126.4275589 C149.63113371 126.76715145 153.60210088 127.11438206 157.57279968 127.465271 C158.24284021 127.52443703 158.91288074 127.58360306 159.60322553 127.64456201 C160.9735133 127.76557783 162.34379913 127.88661555 163.71408308 128.00767469 C172.95920173 128.82398975 182.20479455 129.63348053 191.45288086 130.41552734 C197.68962095 130.94300237 203.92473985 131.48647447 210.15847653 132.04836535 C213.45701524 132.34503222 216.75593049 132.63094892 220.05666542 132.90225983 C223.74087629 133.20609999 227.42159244 133.53775386 231.1027832 133.87597656 C232.19440262 133.95928726 233.28602203 134.04259796 234.41072083 134.12843323 C239.19357012 134.59461969 241.81995267 134.8528895 245.66618347 137.88104248 C247.49399349 140.34514518 249.27428979 142.75678408 250.875 145.375 C251.38675781 146.18839844 251.89851563 147.00179687 252.42578125 147.83984375 C253.81988961 151.02569275 253.97982622 152.98467466 253.5625 156.4375 C252.171875 159.54296875 252.171875 159.54296875 250.3125 162.625 C249.40757812 164.16220703 249.40757812 164.16220703 248.484375 165.73046875 C245.84717004 169.44506843 244.02358623 171.14678903 239.48388672 172.05004883 C238.24912598 172.16372803 237.01436523 172.27740723 235.7421875 172.39453125 C235.0390593 172.46284653 234.33593109 172.5311618 233.61149597 172.60154724 C231.22117079 172.83034455 228.82956149 173.04019109 226.4375 173.25 C224.72313029 173.40945699 223.00885892 173.56997418 221.29467773 173.73144531 C217.36721891 174.0985416 213.43903069 174.45637739 209.51025391 174.80908203 C203.00349961 175.39456292 196.49888319 176.00163881 189.99432373 176.61088562 C183.28355536 177.23932003 176.57209699 177.86028477 169.86057281 178.48058701 C167.63084238 178.68695926 165.40120134 178.89427713 163.17156982 179.10171509 C159.6102902 179.43257342 156.04861924 179.75888822 152.48662758 180.08198738 C150.53178535 180.2602335 148.57730969 180.44248575 146.62284851 180.62486267 C140.23783211 181.19951657 133.97323931 181.566827 127.5625 181.4375 C127.253125 182.4275 127.253125 182.4275 126.9375 183.4375 C122.5602499 192.98786386 114.73372487 200.46007032 105.39160156 205.05981445 C104.48815002 205.5062178 103.58469849 205.95262115 102.65386963 206.41255188 C101.96371765 206.75078476 101.27356567 207.08901764 100.5625 207.4375 C100.63207539 209.10781249 100.63207539 209.10781249 100.70305634 210.81186867 C101.83498346 237.99134179 102.96163776 265.17102966 104.08286285 292.35094643 C104.62521368 305.49529793 105.16923553 318.63957618 105.71728516 331.78369141 C106.19533557 343.24908909 106.67015501 354.71461541 107.1412034 366.18030298 C107.39039249 372.24308002 107.64112538 378.30578377 107.89573669 384.36833572 C108.13607838 390.09233675 108.37205022 395.81650238 108.60488701 401.54081345 C108.69038297 403.62473745 108.77738022 405.70860058 108.86612129 407.79238892 C109.45644753 421.68177487 109.67233511 435.53565776 109.5625 449.4375 C111.05808803 449.43335193 111.05808803 449.43335193 112.58388996 449.42912006 C136.81938678 449.36258778 161.05487178 449.31325432 185.29044056 449.28206348 C197.01047316 449.26657979 208.73044552 449.2454616 220.45043945 449.21118164 C230.6629071 449.18132524 240.87533113 449.16193594 251.08784121 449.15523452 C256.49771598 449.15131588 261.90746594 449.14207541 267.3173008 449.12030983 C272.40534617 449.10000405 277.49321487 449.0936542 282.58129692 449.09817696 C284.45222558 449.0973491 286.32315993 449.0913484 288.19405365 449.07988358 C290.7418375 449.06503176 293.28894788 449.06851937 295.83674622 449.07673645 C296.58285166 449.06799793 297.32895711 449.0592594 298.09767181 449.05025607 C300.98841325 449.0755832 303.05887863 449.10876347 305.51801586 450.71395397 C307.32239494 453.69143375 307.36837818 457.13149581 306.5625 460.4375 C304.26096092 463.51452413 303.0729766 464.36084797 299.22336769 464.93889666 C297.86486546 464.96000794 296.50591431 464.95902172 295.14736938 464.94086456 C294.39431448 464.94667833 293.64125957 464.95249209 292.86538482 464.95848203 C290.32741587 464.97314704 287.79040423 464.95916707 285.25244141 464.94543457 C283.42042354 464.95004093 281.58840937 464.95639205 279.75640297 464.96434355 C274.71076409 464.98109645 269.66542646 464.97276349 264.61978626 464.96039867 C259.18276199 464.95137483 253.74579071 464.96530463 248.30877686 464.97631836 C237.65317797 464.99413672 226.99769157 464.99024884 216.34208822 464.9786678 C207.68469409 464.96964678 199.02733156 464.9684037 190.36993408 464.97276306 C189.13937054 464.97337599 187.908807 464.97398893 186.64095366 464.97462043 C184.14135471 464.97589929 181.64175577 464.97719614 179.14215684 464.9785108 C156.35374111 464.98960067 133.56537961 464.9780857 110.77697411 464.95714041 C89.96521545 464.93815737 69.15355468 464.93985586 48.34179688 464.95898438 C24.97011872 464.98039386 1.5984917 464.98882759 -21.77319527 464.97653532 C-24.26377486 464.97526108 -26.75435447 464.9740036 -29.24493408 464.97276306 C-31.08321732 464.97183741 -31.08321732 464.97183741 -32.9586376 464.97089306 C-41.60905543 464.96743441 -50.25943861 464.97327957 -58.90985107 464.98268127 C-69.44692323 464.99388137 -79.98387615 464.99090316 -90.52093458 464.9695583 C-95.90063257 464.95902108 -101.28013151 464.95497145 -106.65982819 464.96815491 C-111.57967545 464.98002942 -116.4991382 464.97359826 -121.41895032 464.9522447 C-123.20354303 464.94775759 -124.98816789 464.95009182 -126.77274013 464.95974785 C-129.18975183 464.97182785 -131.60542862 464.95952392 -134.02236938 464.94086456 C-134.72304732 464.95022923 -135.42372525 464.95959389 -136.14563584 464.96924233 C-139.516017 464.91686622 -141.18117019 464.63817069 -143.8699398 462.53323698 C-146.4954211 459.02312091 -145.91465743 456.73191691 -145.4375 452.4375 C-144.39301586 450.71395397 -144.39301586 450.71395397 -142.4375 449.4375 C-139.78353873 449.14926302 -137.36561579 449.04565384 -134.71174622 449.07673645 C-133.51958757 449.07289154 -133.51958757 449.07289154 -132.30334491 449.06896895 C-129.63146904 449.06401462 -126.96015416 449.08055091 -124.28833008 449.09692383 C-122.37658196 449.09776975 -120.46483287 449.09729565 -118.55308533 449.09559631 C-113.35499675 449.09473355 -108.15711472 449.11240472 -102.95907426 449.13331819 C-97.52983022 449.15203825 -92.10058175 449.15383174 -86.67131042 449.15739441 C-76.38656763 449.16672862 -66.10192019 449.19136103 -55.81721944 449.22144288 C-44.11000997 449.25494408 -32.40279601 449.27146212 -20.69555056 449.28652918 C3.39051922 449.31790937 27.47650427 449.3706966 51.5625 449.4375 C51.54667374 448.14774073 51.53084747 446.85798145 51.51454163 445.52913857 C51.31661822 427.49970491 52.1960495 409.51174593 52.97600365 391.50458741 C53.17601794 386.85858094 53.37004982 382.21232478 53.5645752 377.56608582 C54.01661098 366.79082005 54.4752014 356.01583874 54.93491364 345.24089813 C55.52038843 331.51611273 56.10405248 317.79125602 56.67926931 304.0660364 C56.90977798 298.57170874 57.1441645 293.07756552 57.38175201 287.58353961 C57.52958182 284.14657648 57.67404651 280.70947735 57.8176899 277.27233696 C57.8840061 275.70154527 57.95165309 274.13080897 58.02087212 272.56014252 C58.52136118 261.18017867 58.63510572 249.82802525 58.5625 238.4375 C58.20115463 238.97109634 57.83980927 239.50469269 57.46751404 240.05445862 C50.95703836 249.66332239 44.35643488 259.19045355 37.52416992 268.57348633 C32.75465998 275.13506262 28.10491421 281.77679578 23.49438477 288.45092773 C13.10668349 303.40804434 13.10668349 303.40804434 8.5625 306.4375 C5.62090314 306.93289523 2.66643947 306.89961206 -0.3125 306.9375 C-1.51712891 306.999375 -1.51712891 306.999375 -2.74609375 307.0625 C-7.34196458 307.12307161 -8.86976059 306.97689075 -12.33203125 303.6875 C-13.02683594 302.615 -13.72164062 301.5425 -14.4375 300.4375 C-14.95957031 299.6640625 -15.48164063 298.890625 -16.01953125 298.09375 C-16.42558594 297.3821875 -16.83164063 296.670625 -17.25 295.9375 C-17.87841797 294.87015625 -17.87841797 294.87015625 -18.51953125 293.78125 C-20.15864 289.59629149 -19.77379723 286.33338088 -18.20678711 282.15893555 C-17.6319458 280.975979 -17.05710449 279.79302246 -16.46484375 278.57421875 C-16.15067505 277.91818161 -15.83650635 277.26214447 -15.51281738 276.58622742 C-14.83296405 275.16946917 -14.14791253 273.75519597 -13.45822144 272.34320068 C-11.59495167 268.52763155 -9.76979351 264.69379368 -7.9375 260.86328125 C-7.3710099 259.68348694 -7.3710099 259.68348694 -6.79307556 258.4798584 C-3.03655402 250.64311501 0.55458072 242.73531009 4.125 234.8125 C9.87844036 222.07089069 15.76149604 209.39430949 21.72875977 196.75146484 C22.03078812 196.11063965 22.33281647 195.46981445 22.64399719 194.80957031 C23.45580305 193.08781369 24.26933688 191.3668721 25.08300781 189.64599609 C28.77395565 182.5434019 28.77395565 182.5434019 29.3125 174.8125 C29.20421875 174.09835938 29.0959375 173.38421875 28.984375 172.6484375 C28.69436438 171.12856701 28.37492708 169.61411004 28.03125 168.10546875 C26.44568466 159.08095935 27.21124752 149.95185616 29.80859375 141.21875 C31.63883301 134.46677926 31.6539682 130.29116715 28.46875 124.0390625 C28.13092499 123.33995758 27.79309998 122.64085266 27.44503784 121.92056274 C26.71478001 120.41418728 25.97653268 118.91166385 25.23114014 117.41271973 C23.6366363 114.20605734 22.08059476 110.98122258 20.52182007 107.75708008 C19.71719729 106.09384013 18.91055798 104.4315743 18.10195923 102.77026367 C14.2318317 94.80850161 10.56799938 86.76061464 6.9375 78.6875 C1.23435054 66.04587841 -4.60021931 53.47017396 -10.51611328 40.92675781 C-12.16352627 37.43358009 -13.80165946 33.93611387 -15.4375 30.4375 C-15.86869141 29.52669678 -16.29988281 28.61589355 -16.74414062 27.67749023 C-17.11087891 26.88544189 -17.47761719 26.09339355 -17.85546875 25.27734375 C-18.16379639 24.61855225 -18.47212402 23.95976074 -18.78979492 23.28100586 C-20.01479773 19.79438836 -19.6269441 16.81278116 -18.4375 13.4375 C-13.92419896 4.19006362 -10.68534482 -0.10037472 0 0 Z M-1.4375 15.4375 C-2.88705367 20.75542243 -1.73931898 23.99859829 0.65625 28.73828125 C0.99416565 29.43898239 1.3320813 30.13968353 1.68023682 30.86161804 C2.41146767 32.37371216 3.14978698 33.88239471 3.89440918 35.38793945 C5.4840033 38.60234496 7.03941804 41.83288398 8.59686279 45.06295776 C9.40084448 46.72974458 10.20656703 48.39569274 11.01397705 50.06082153 C14.91861293 58.12472634 18.63292815 66.26904371 22.3125 74.4375 C23.52611201 77.1242558 24.7412734 79.81030833 25.95703125 82.49609375 C26.25263443 83.14941681 26.54823761 83.80273987 26.85279846 84.4758606 C30.18907258 91.83859014 33.59009237 99.17114408 37 106.5 C37.28588989 107.11447998 37.57177979 107.72895996 37.86633301 108.36206055 C39.42982913 111.72142435 40.99524149 115.07988996 42.5625 118.4375 C46.07266406 118.4375 46.43326935 117.94138079 49 115.75 C54.01864014 111.80075234 59.62773735 109.67292727 65.5625 107.4375 C63.95538858 102.55944416 61.16649535 98.80153028 58.1875 94.6875 C57.09621841 93.16155541 56.00507644 91.63551097 54.9140625 90.109375 C54.3562207 89.33271484 53.79837891 88.55605469 53.22363281 87.75585938 C50.64990248 84.16383362 48.10693148 80.55030691 45.5625 76.9375 C44.56266639 75.52071589 43.56266589 74.10404955 42.5625 72.6875 C24.5625 47.1875 24.5625 47.1875 23.06005859 45.05883789 C22.06845263 43.65419749 21.07659413 42.24973532 20.08447266 40.84545898 C17.45385492 37.12127691 14.82877534 33.39333517 12.2109375 29.66015625 C11.66308594 28.88027344 11.11523438 28.10039063 10.55078125 27.296875 C9.4970884 25.79670212 8.44493568 24.29544598 7.39453125 22.79296875 C6.92144531 22.12007812 6.44835937 21.4471875 5.9609375 20.75390625 C5.33711182 19.86360718 5.33711182 19.86360718 4.70068359 18.95532227 C3.5032698 17.28393794 3.5032698 17.28393794 1.5625 15.4375 C0.5725 15.4375 -0.4175 15.4375 -1.4375 15.4375 Z M48.9375 136.375 C44.05891002 143.34441426 41.64392233 153.01720468 42.5625 161.4375 C44.73289876 173.08530668 49.78166014 182.53012722 59.5625 189.4375 C68.93347955 195.15325999 78.88594054 197.03998179 89.6875 194.78515625 C101.22212753 191.35713557 108.71905963 184.58751985 114.78125 174.38671875 C119.48419541 165.19917897 119.49387419 154.9827663 116.62890625 145.21875 C112.69141597 134.94954457 104.84118726 127.19118068 95 122.4375 C77.22862185 115.78172271 60.76367919 122.27455558 48.9375 136.375 Z M131.5625 141.4375 C132.2225 149.3575 132.8825 157.2775 133.5625 165.4375 C140.0531949 165.4375 146.27199151 165.32584338 152.6965332 164.73486328 C153.54827621 164.6600473 154.40001923 164.58523132 155.27757263 164.50814819 C158.05657855 164.26268098 160.83493488 164.01062803 163.61328125 163.7578125 C165.55997721 163.58307168 167.5066887 163.40850381 169.45341492 163.23410034 C173.51586277 162.86898126 177.57797075 162.50031781 181.63989258 162.12939453 C186.84207828 161.65484498 192.04519239 161.1914627 197.24863911 160.7309742 C201.26141114 160.37423483 205.2735241 160.0104775 209.28548241 159.64471054 C211.2041869 159.47085137 213.12311445 159.29943569 215.04226112 159.1305275 C217.72071082 158.89396029 220.39809743 158.64767513 223.07543945 158.39892578 C223.86461761 158.33131042 224.65379578 158.26369507 225.46688843 158.19403076 C229.48773442 157.80963542 232.90527052 157.18279948 236.5625 155.4375 C236.0675 152.9625 236.0675 152.9625 235.5625 150.4375 C213.65518834 148.18466786 191.73799747 146.04359156 169.80764771 144.02670288 C167.3616154 143.8014027 164.91571112 143.57470816 162.46994019 143.34658813 C159.00246624 143.02373918 155.53452856 142.70642354 152.06640625 142.390625 C150.52172165 142.24559792 150.52172165 142.24559792 148.9458313 142.09764099 C147.48679886 141.96664757 147.48679886 141.96664757 145.99829102 141.83300781 C145.16185562 141.75624817 144.32542023 141.67948853 143.46363831 141.60040283 C139.50246042 141.37797735 135.52991772 141.4375 131.5625 141.4375 Z M40.5625 193.4375 C33.26331176 208.4094001 26.22135506 223.47661372 19.37426758 238.65917969 C16.08113885 245.95158099 12.74149199 253.21751591 9.30859375 260.4453125 C8.96138779 261.17791794 8.61418182 261.91052338 8.25645447 262.66532898 C6.58762322 266.18462446 4.91098317 269.69983247 3.22143555 273.20922852 C2.61868492 274.47658598 2.01621225 275.74407569 1.4140625 277.01171875 C0.88635254 278.11088623 0.35864258 279.21005371 -0.18505859 280.3425293 C-1.43589581 283.4335358 -2.12192805 286.12280595 -2.4375 289.4375 C-2.1075 290.0975 -1.7775 290.7575 -1.4375 291.4375 C-0.1175 291.4375 1.2025 291.4375 2.5625 291.4375 C4.42874999 289.15686885 5.98646638 286.97124127 7.5625 284.5 C8.54171325 283.02000189 9.52222505 281.54086228 10.50390625 280.0625 C11.00809082 279.29550781 11.51227539 278.52851563 12.03173828 277.73828125 C14.44788626 274.10673762 16.97224474 270.55434525 19.5 267 C20.50929879 265.57434914 21.51841237 264.14856715 22.52734375 262.72265625 C23.02862793 262.01512207 23.52991211 261.30758789 24.04638672 260.57861328 C26.55593911 257.03452721 29.05898249 253.48585038 31.5625 249.9375 C34.570963 245.67346718 37.58081007 241.41045098 40.59765625 237.15234375 C43.59476836 232.92024799 46.58211133 228.68138786 49.5625 224.4375 C50.35213135 223.31456543 50.35213135 223.31456543 51.15771484 222.16894531 C52.71477488 219.94972001 54.26472075 217.72570505 55.8125 215.5 C56.29082275 214.81929443 56.76914551 214.13858887 57.26196289 213.43725586 C59.72511846 210.23670502 59.72511846 210.23670502 60.5625 206.4375 C59.94503906 206.169375 59.32757813 205.90125 58.69140625 205.625 C52.66995181 202.83881713 48.08402464 199.58186701 43.27734375 195.01171875 C41.82769613 193.32479061 41.82769613 193.32479061 40.5625 193.4375 Z M77.5625 210.4375 C75.77713379 215.87212899 75.18254489 220.80565965 74.98031616 226.50588989 C74.94185534 227.39699648 74.90339452 228.28810306 74.86376822 229.20621288 C74.73748602 232.18033038 74.62339106 235.15478717 74.50927734 238.12939453 C74.4210399 240.26697245 74.3320571 242.40451971 74.24238586 244.54203796 C74.00127515 250.34160151 73.77079337 256.1415439 73.54235029 261.94161844 C73.30127154 268.02030689 73.05090339 274.09861303 72.80166626 280.17697144 C72.38420499 290.3905429 71.97314035 300.60435536 71.56640625 310.81835938 C71.04534272 323.90267529 70.51397717 336.98655108 69.97923851 350.07031441 C69.51859666 361.34271555 69.0625377 372.61530144 68.60729647 383.88792181 C68.46132139 387.49831773 68.31475974 391.1086895 68.16813278 394.71905899 C67.93730309 400.41034873 67.70933764 406.1017467 67.48352623 411.79323769 C67.40057018 413.87446826 67.31674722 415.9556645 67.2319622 418.03682137 C67.11575682 420.89352519 67.00284072 423.75034171 66.89071655 426.60720825 C66.85706226 427.41668415 66.82340796 428.22616005 66.78873384 429.06016552 C66.52737156 435.86759678 66.5625 442.60725037 66.5625 449.4375 C75.8025 449.4375 85.0425 449.4375 94.5625 449.4375 C94.5625 441.79584719 94.55085776 434.22903904 94.22755432 426.60720825 C94.19150792 425.70674172 94.15546151 424.80627519 94.11832279 423.8785218 C93.99878927 420.90865294 93.8755155 417.9389522 93.75219727 414.96923828 C93.66493381 412.82107916 93.57789365 410.67291096 93.49105835 408.5247345 C93.25591449 402.72552759 93.01740501 396.9264638 92.77806973 391.12742853 C92.57825091 386.27860492 92.38006947 381.42971492 92.18187374 376.58082473 C91.71441479 365.145254 91.24419564 353.70979907 90.7722168 342.27441406 C90.28561798 330.48368619 89.80357805 318.69277814 89.32378155 306.90177166 C88.91106156 296.76294871 88.49558667 286.62424123 88.07788509 276.48562229 C87.82869223 270.43653367 87.58052925 264.38740735 87.33499336 258.3381691 C87.10424908 252.65643033 86.87006094 246.97484377 86.63322067 241.29335594 C86.54693347 239.2096871 86.461857 237.12596772 86.37808418 235.04219627 C86.26349055 232.19661321 86.14450877 229.35124599 86.02442932 226.50588989 C85.99232363 225.68302966 85.96021793 224.86016943 85.92713934 224.01237404 C85.728138 219.42384239 85.29099618 214.97307681 84.5625 210.4375 C82.2525 210.4375 79.9425 210.4375 77.5625 210.4375 Z " fill="#42A893" transform="translate(175.4375,23.5625)"/>
<path d="M0 0 C1.9375 1.75 1.9375 1.75 3 4 C2.68553611 9.03142225 1.17328962 11.51566531 -2.125 15.25 C-28.04217999 45.67095534 -38.05261206 81.5719997 -36 121 C-35.49289626 127.11905177 -34.42658886 133.03400251 -33 139 C-32.84966309 139.66902344 -32.69932617 140.33804688 -32.54443359 141.02734375 C-27.95936069 160.87218682 -18.06365192 179.02495714 -5.6640625 195.01171875 C-4.92929688 195.97722656 -4.19453125 196.94273437 -3.4375 197.9375 C-2.77621094 198.77152344 -2.11492187 199.60554687 -1.43359375 200.46484375 C0.31770595 203.56182878 0.38698837 205.49291792 0 209 C-1.5625 211.375 -1.5625 211.375 -4 213 C-7.4375 213.5625 -7.4375 213.5625 -11 213 C-13.5 211 -13.5 211 -16 208 C-16.48726562 207.51144531 -16.97453125 207.02289063 -17.4765625 206.51953125 C-35.9705676 187.36815631 -46.90195296 157.88550575 -51 132 C-51.27650391 130.2984375 -51.27650391 130.2984375 -51.55859375 128.5625 C-53.68904315 110.70954818 -53.42301623 90.43188748 -49 73 C-48.79600586 72.17145508 -48.59201172 71.34291016 -48.38183594 70.48925781 C-41.67127182 43.79352021 -29.38775153 18.02299767 -9 -1 C-5.15941827 -2.28019391 -3.6601592 -1.60131965 0 0 Z " fill="#41A694" transform="translate(152,74)"/>
<path d="M0 0 C5.96421772 5.10493414 11.41027562 10.51941224 16.34570312 16.61865234 C17.44785156 17.92962891 17.44785156 17.92962891 18.57226562 19.26708984 C28.62899668 31.68635455 36.7216332 45.72167901 42.65820312 60.55615234 C42.95428467 61.28278076 43.25036621 62.00940918 43.55541992 62.75805664 C45.18216333 67.09450873 45.62432116 70.14683638 44.34570312 74.61865234 C42.74543243 76.93904485 41.61795302 77.51834975 38.97070312 78.49365234 C35.35787689 78.66569169 34.1111234 77.95862335 31.34570312 75.61865234 C29.15075915 71.88724758 27.54407553 68.09911885 25.89257812 64.09912109 C19.75886331 49.39516173 11.82663975 36.65889969 1.34570312 24.61865234 C0.77464844 23.91482422 0.20359375 23.21099609 -0.38476562 22.48583984 C-5.15001189 16.71321372 -10.74698032 12.18376228 -16.65429688 7.61865234 C-17.50894531 6.94833984 -18.36359375 6.27802734 -19.24414062 5.58740234 C-47.20561905 -15.60445499 -83.33854876 -26.24615768 -118.31835938 -21.70556641 C-121.93496135 -21.19677395 -125.53834073 -20.62670814 -129.14257812 -20.03759766 C-138.51767229 -18.5832921 -138.51767229 -18.5832921 -142.59179688 -21.44384766 C-144.65429688 -24.38134766 -144.65429688 -24.38134766 -144.65429688 -28.00634766 C-143.35683475 -32.38528234 -143.35683475 -32.38528234 -140.65429688 -34.38134766 C-137.39648438 -35.29541016 -137.39648438 -35.29541016 -133.52929688 -36.00634766 C-132.26859375 -36.24611328 -131.00789062 -36.48587891 -129.70898438 -36.73291016 C-82.73526847 -44.57715373 -36.1861688 -30.21566456 0 0 Z " fill="#56BC8D" transform="translate(359.654296875,63.38134765625)"/>
<path d="M0 0 C2.49252328 3.73878492 2.28837599 5.5627307 2 10 C-3.50960179 33.95226883 -17.57014119 56.07850453 -34 74 C-34.49870605 74.54398437 -34.99741211 75.08796875 -35.51123047 75.6484375 C-51.76470208 93.12771527 -71.90446792 105.96446055 -94.20996094 114.32763672 C-95.75451065 114.90779083 -97.28855318 115.51577821 -98.8203125 116.12890625 C-103.63969616 117.95046991 -106.97956203 118.35970195 -112 117 C-113.2220897 114.5558206 -113.23641068 112.78970128 -113.3125 110.0625 C-113.34988281 109.18722656 -113.38726562 108.31195313 -113.42578125 107.41015625 C-113 105 -113 105 -111.51953125 103.375 C-107.95119691 101.42762994 -104.21962589 100.23203621 -100.375 98.9375 C-63.79451739 85.99607553 -36.95716833 58.24226417 -20.25732422 23.79003906 C-17.18746718 16.97793688 -14.88385839 9.86630239 -12.69506836 2.72973633 C-11.74995685 0.37774649 -10.57319027 -0.75434703 -8.25 -1.75 C-5.06181272 -2.10424303 -2.91614351 -1.26788848 0 0 Z " fill="#4CB190" transform="translate(405,214)"/>
</svg>
